<?xml version="1.0" encoding="UTF-8" standalone="no"?>
<!-- Created with Inkscape (http://www.inkscape.org/) -->

<svg
   xmlns:dc="http://purl.org/dc/elements/1.1/"
   xmlns:cc="http://creativecommons.org/ns#"
   xmlns:rdf="http://www.w3.org/1999/02/22-rdf-syntax-ns#"
   xmlns:svg="http://www.w3.org/2000/svg"
   xmlns="http://www.w3.org/2000/svg"
   xmlns:sodipodi="http://sodipodi.sourceforge.net/DTD/sodipodi-0.dtd"
   xmlns:inkscape="http://www.inkscape.org/namespaces/inkscape"
   width="179.91667mm"
   height="68.791672mm"
   viewBox="0 0 179.91667 68.791672"
   version="1.1"
   id="svg931"
   inkscape:version="0.92.4 (5da689c313, 2019-01-14)"
   sodipodi:docname="banner-2020_03_30.svg">
  <defs
     id="defs925" />
  <sodipodi:namedview
     id="base"
     pagecolor="#ffffff"
     bordercolor="#666666"
     borderopacity="1.0"
     inkscape:pageopacity="0.0"
     inkscape:pageshadow="2"
     inkscape:zoom="0.7"
     inkscape:cx="368.8025"
     inkscape:cy="117.93327"
     inkscape:document-units="mm"
     inkscape:current-layer="layer1"
     showgrid="false"
     fit-margin-top="0"
     fit-margin-left="0"
     fit-margin-right="0"
     fit-margin-bottom="0"
     inkscape:window-width="1920"
     inkscape:window-height="1136"
     inkscape:window-x="1920"
     inkscape:window-y="27"
     inkscape:window-maximized="1" />
  <metadata
     id="metadata928">
    <rdf:RDF>
      <cc:Work
         rdf:about="">
        <dc:format>image/svg+xml</dc:format>
        <dc:type
           rdf:resource="http://purl.org/dc/dcmitype/StillImage" />
        <dc:title></dc:title>
      </cc:Work>
    </rdf:RDF>
  </metadata>
  <g
     inkscape:label="Layer 1"
     inkscape:groupmode="layer"
     id="layer1"
     transform="translate(-17.008928,-54.717258)">
    <rect
       style="opacity:1;fill:none;fill-opacity:1;stroke:none;stroke-width:0;stroke-linecap:round;stroke-linejoin:bevel;stroke-miterlimit:4;stroke-dasharray:none;stroke-dashoffset:0;stroke-opacity:1"
       id="rect1542"
       width="179.91667"
       height="68.791672"
       x="17.008928"
       y="54.717258" />
    <g
       id="g1551"
       transform="translate(-1.3851126,0.75595474)">
      <g
         id="g1540">
        <circle
           style="opacity:1;fill:#ffffff;fill-opacity:1;stroke:none;stroke-width:0.03412881;stroke-linecap:round;stroke-linejoin:bevel;stroke-miterlimit:4;stroke-dasharray:none;stroke-dashoffset:0;stroke-opacity:1"
           id="circle847"
           cx="55.940491"
           cy="88.35714"
           r="27.328279"
           inkscape:export-xdpi="99.507301"
           inkscape:export-ydpi="99.507301" />
        <path
           style="opacity:1;fill:#ff80b2;fill-opacity:1;stroke:none;stroke-width:0.56653327;stroke-linecap:round;stroke-linejoin:bevel;stroke-miterlimit:4;stroke-dasharray:none;stroke-dashoffset:0;stroke-opacity:1"
           d="m 34.965302,82.446989 -2.2e-4,4.2e-4 c -0.004,-8.5e-4 -0.008,-1.1e-4 -0.0126,0.002 v 2.3e-4 c -0.0669,0.0328 -0.009,0.49196 0.196081,1.5106 0.0719,0.35998 0.211229,0.97693 0.315579,1.39377 0.10427,0.41683 0.509281,1.35978 0.678731,1.7724 0.99284,1.95333 1.51385,3.06459 2.69214,4.79341 0.74795,1.07572 1.53766,1.90218 2.37966,2.90702 0.44065,0.53199 0.884539,1.06143 1.32915,1.59005 0.15487,0.20512 0.1837,0.49261 0.0744,0.725 -0.57499,1.49085 -1.17748,2.971451 -1.76754,4.456361 -0.37511,0.9366 -0.75049,1.87267 -1.12576,2.8092 0.80505,-0.35448 1.6135,-0.70592 2.45092,-0.97815 0.82495,-0.2865 1.65419,-0.56547 2.501819,-0.77744 0.189051,-0.032 0.40272,-0.16292 0.58446,-0.0418 0.15557,0.0939 0.32853,0.20855 0.30562,0.5194 -0.0516,0.65523 -0.0768,0.70181 -0.224399,1.34308 -0.0157,0.15503 -0.14827,0.3384 -0.0268,0.47912 0.0848,0.0997 0.37649,-0.17677 0.60748,-0.29787 0.84525,-0.66367 1.09971,-0.74995 1.59691,-1.07332 0.49716,-0.32335 0.85329,-0.39174 1.46303,-0.34014 0.44326,0.0646 0.71031,0.14735 1.08438,0.22352 1.36512,0.32329 2.74479,0.58612 4.13349,0.78518 0.79596,0.11031 1.499931,0.2012 2.430999,0.19253 0.931069,-0.009 1.834679,0.16246 2.68727,0.0283 2.60667,-0.50731 2.47722,-0.52649 3.790691,-0.76062 0.432588,-0.0796 0.874559,-0.0463 1.30856,0.003 1.797119,0.20782 3.560548,0.63375 5.300178,1.12067 0.540532,0.14773 1.079831,0.29987 1.618832,0.45301 -0.893111,-0.68402 -1.746289,-1.42002 -2.558031,-2.19863 -0.293729,-0.40121 -0.589748,-0.80069 -0.864629,-1.21518 -0.112731,-0.35062 0.160189,-0.73981 0.511209,-0.80598 0.405249,-0.11125 0.826591,-0.0151 1.234422,0.0296 1.140719,0.1537 2.280468,0.31389 3.41757,0.4924 -0.251779,-0.28804 -0.577661,-0.49633 -0.849583,-0.76349 -0.65187,-0.56812 -1.29567,-1.149561 -1.871988,-1.795641 -0.437951,-0.62511 -0.782121,-1.11581 -1.0663,-1.81939 -0.0764,-0.20271 0.0208,-0.67871 0.18795,-0.82628 0.386299,-0.38258 0.819121,-0.71365 1.21893,-1.08151 0.669009,-0.59751 1.31736,-1.22958 1.837028,-1.96427 0.380192,-0.5546 0.686312,-1.16019 0.897382,-1.79896 0.0719,-0.34084 0.0477,-0.73352 -0.18589,-1.01003 -0.29591,-0.31672 -0.734448,-0.43955 -1.151001,-0.49572 -0.82903,-0.0876 -1.661999,0.0232 -2.481901,0.14407 -1.111178,0.16377 -2.214267,0.37636 -3.319528,0.57538 -0.391641,0.0188 -0.750531,-0.17934 -1.07155,-0.38152 -0.239511,-0.14387 -0.476922,-0.29164 -0.723661,-0.42313 -0.232281,-0.0443 -0.46626,0.0496 -0.653939,0.18147 -0.1504,0.14125 -0.169871,0.3564 -0.24986,0.53621 -0.11939,0.16718 -0.34454,0.17817 -0.531779,0.16885 -0.422931,-0.0113 -0.851383,0.0756 -1.227123,0.27287 -0.29323,0.20766 -0.404978,0.57258 -0.469389,0.90933 -0.0528,0.27635 -0.004,0.56676 0.12858,0.81417 0.139401,0.30262 0.365591,0.55258 0.59751,0.78717 0.144562,0.14061 0.0753,0.39745 -0.11618,0.45301 -0.222949,0.10211 -0.465658,0.15154 -0.696658,0.23237 -0.9535,0.30108 -1.918722,0.59925 -2.919201,0.68847 -1.085541,0.0816 -2.170032,-0.0567 -3.248931,-0.16221 l -6.48858,-0.66746 c -0.80214,0.0314 -1.85078,0.10278 -2.6065,0.35785 -0.59964,0.20446 -1.17768,0.46587 -1.76134,0.7106 -0.28313,0.0862 -0.59246,-0.0356 -0.79426,-0.23945 -1.16175,-1.05191 -2.0183,-1.74136 -3.1655,-2.80899 -1.52623,-1.80577 -2.197059,-2.94123 -2.90858,-4.25055 -0.5737,-0.99611 -0.80404,-1.33316 -1.31586,-2.43963 -0.13259,-0.31144 -0.29905,-0.86604 -0.454989,-1.16737 -0.230031,-0.53502 -0.349211,-1.1075 -0.497941,-1.66817 -0.0693,-0.13019 -0.120789,-0.20246 -0.15292,-0.20847 z m 33.155061,10.3483 c 7.94e-4,0.002 0.0021,0.003 0.003,0.005 -7.94e-4,-5.3e-4 -0.0021,-7.9e-4 -0.003,-0.002 -2.19e-4,-10e-4 -5.29e-4,-0.003 -7.93e-4,-0.004 z"
           id="path849"
           inkscape:connector-curvature="0"
           sodipodi:nodetypes="ccccccccccccccccccccccccccccccccccccccccccccccccccccccccccccccccccccccccc"
           inkscape:export-xdpi="99.507301"
           inkscape:export-ydpi="99.507301" />
        <circle
           style="opacity:1;fill:#dc0057;fill-opacity:1;stroke:none;stroke-width:0;stroke-linecap:round;stroke-linejoin:bevel;stroke-miterlimit:4;stroke-dasharray:none;stroke-dashoffset:0;stroke-opacity:1"
           id="circle851"
           cx="69.183212"
           cy="92.234573"
           r="1.1134386"
           inkscape:export-xdpi="99.507301"
           inkscape:export-ydpi="99.507301" />
        <path
           inkscape:export-ydpi="99.507301"
           inkscape:export-xdpi="99.507301"
           style="fill:#dc0057;fill-opacity:1;stroke:none;stroke-width:0.56653327;stroke-miterlimit:4;stroke-dasharray:none"
           d="M 55.940801,61.028873 A 27.328529,27.328529 0 0 0 28.612182,88.357459 27.328529,27.328529 0 0 0 55.940801,115.68538 27.328529,27.328529 0 0 0 83.268743,88.357459 27.328529,27.328529 0 0 0 55.940801,61.028873 Z m 0,2.450254 A 24.977687,24.977687 0 0 1 80.918513,88.456829 24.977687,24.977687 0 0 1 55.940801,113.43451 24.977687,24.977687 0 0 1 30.963082,88.456829 24.977687,24.977687 0 0 1 55.940801,63.479127 Z"
           id="path853"
           inkscape:connector-curvature="0" />
      </g>
      <text
         transform="scale(0.99910859,1.0008922)"
         xml:space="preserve"
         style="font-style:normal;font-variant:normal;font-weight:normal;font-stretch:normal;font-size:7.50548077px;line-height:1.25;font-family:'Noto Sans';-inkscape-font-specification:'Noto Sans';letter-spacing:0px;word-spacing:0px;opacity:1;fill:#dc0057;fill-opacity:1;stroke:none;stroke-width:0.18763702"
         x="93.878212"
         y="102.04043"
         id="text903"><tspan
           sodipodi:role="line"
           id="tspan901"
           x="93.878212"
           y="102.04043"
           style="font-style:normal;font-variant:normal;font-weight:300;font-stretch:normal;font-size:36.02630997px;font-family:Ubuntu;-inkscape-font-specification:'Ubuntu Light';fill:#dc0057;fill-opacity:1;stroke-width:0.18763702">sciber</tspan></text>
    </g>
  </g>
</svg>
