<?xml version="1.0" encoding="UTF-8" standalone="no"?>
<!-- Created with Inkscape (http://www.inkscape.org/) -->

<svg
   xmlns:dc="http://purl.org/dc/elements/1.1/"
   xmlns:cc="http://creativecommons.org/ns#"
   xmlns:rdf="http://www.w3.org/1999/02/22-rdf-syntax-ns#"
   xmlns:svg="http://www.w3.org/2000/svg"
   xmlns="http://www.w3.org/2000/svg"
   xmlns:sodipodi="http://sodipodi.sourceforge.net/DTD/sodipodi-0.dtd"
   xmlns:inkscape="http://www.inkscape.org/namespaces/inkscape"
   width="132.29166mm"
   height="132.2916mm"
   viewBox="0 0 132.29166 132.2916"
   version="1.1"
   id="svg844"
   inkscape:version="0.92.4 (5da689c313, 2019-01-14)"
   sodipodi:docname="brand-logo-white.svg">
  <defs
     id="defs838" />
  <sodipodi:namedview
     id="base"
     pagecolor="#ffffff"
     bordercolor="#666666"
     borderopacity="1.0"
     inkscape:pageopacity="0.0"
     inkscape:pageshadow="2"
     inkscape:zoom="0.98994949"
     inkscape:cx="132.42773"
     inkscape:cy="244.86772"
     inkscape:document-units="mm"
     inkscape:current-layer="layer1"
     showgrid="false"
     fit-margin-top="0"
     fit-margin-left="0"
     fit-margin-right="0"
     fit-margin-bottom="0"
     inkscape:window-width="1920"
     inkscape:window-height="1136"
     inkscape:window-x="1920"
     inkscape:window-y="27"
     inkscape:window-maximized="1" />
  <metadata
     id="metadata841">
    <rdf:RDF>
      <cc:Work
         rdf:about="">
        <dc:format>image/svg+xml</dc:format>
        <dc:type
           rdf:resource="http://purl.org/dc/dcmitype/StillImage" />
        <dc:title />
      </cc:Work>
    </rdf:RDF>
  </metadata>
  <g
     inkscape:label="Layer 1"
     inkscape:groupmode="layer"
     id="layer1"
     transform="translate(64.633927,-126.53278)">
    <path
       style="opacity:1;fill:#ffffff;fill-opacity:0.90196079;stroke:none;stroke-width:5.18266201;stroke-linecap:round;stroke-linejoin:bevel;stroke-miterlimit:4;stroke-dasharray:none;stroke-dashoffset:0;stroke-opacity:1"
       d="M 70.035156 161.3125 L 70.035156 161.31445 C 69.376022 161.48793 69.067368 165.70933 69.070312 175.21484 C 69.066155 178.57299 69.204269 184.35853 69.388672 188.28516 C 69.572395 192.21152 71.50537 201.39819 72.28125 205.4043 C 77.664291 224.71284 80.33219 235.61871 87.783203 253.24805 C 92.552033 264.24417 98.144657 273.07938 103.88477 283.60938 C 106.87775 289.17499 109.90487 294.7231 112.93945 300.26562 C 113.95864 302.38447 113.7 305.01515 112.30078 306.90234 C 104.45626 319.23664 96.38303 331.42969 88.414062 343.68359 C 83.361375 351.40736 78.305949 359.12675 73.251953 366.84961 C 81.111197 365.12172 88.996764 363.42598 96.998047 362.49414 C 104.91321 361.4118 112.85368 360.40429 120.83789 360.03125 C 122.59111 360.08492 124.74268 359.29702 126.1543 360.71094 C 127.38027 361.83357 128.72483 363.1733 127.95898 365.91992 C 126.31497 371.70339 126.00521 372.07532 123.52539 377.56055 C 123.10516 378.92265 121.58614 380.3295 122.42188 381.81055 C 123.00268 382.85763 126.11626 380.90407 128.40625 380.23438 C 137.18342 375.80594 139.6219 375.4902 144.66406 373.48633 C 149.70584 371.48261 153.02291 371.5103 158.39844 373.07227 C 162.25741 374.45073 164.50313 375.67571 167.7207 377.0332 C 179.38116 382.39367 191.28106 387.23856 203.37695 391.52734 C 210.31678 393.95161 216.46601 396.03402 224.83203 397.63477 C 233.19869 399.23252 240.99437 402.4006 248.88281 402.73438 C 273.17566 402.88367 272.04983 402.47888 284.25195 402.74609 C 288.27518 402.81186 292.17891 403.90633 295.98242 405.13086 C 311.7255 410.23451 326.77178 417.23321 341.49609 424.73633 C 346.0776 427.03572 350.64118 429.37363 355.19922 431.71875 C 348.42235 423.97397 342.09729 415.83512 336.2207 407.38867 C 334.30964 403.26086 332.37434 399.14457 330.65625 394.93164 C 330.27728 391.58381 333.4259 388.5837 336.69336 388.62305 C 340.52843 388.35583 344.13579 389.97915 347.71289 391.11523 C 357.66651 394.55018 367.59816 398.0405 377.47461 401.69141 C 375.73576 398.65418 373.18956 396.19877 371.23242 393.3125 C 366.41023 387.04207 361.68375 380.66741 357.67969 373.83398 C 354.87877 367.43808 352.6768 362.41621 351.39648 355.59375 C 351.0767 353.63796 352.80712 349.54366 354.57227 348.52148 C 358.72654 345.78669 363.20424 343.59796 367.45312 341.01953 C 374.5304 336.86674 381.48552 332.3672 387.4707 326.71484 C 391.88033 322.42625 395.71717 317.54759 398.76172 312.19922 C 400.02103 309.27197 400.51251 305.7057 398.91602 302.80469 C 396.83308 299.4307 393.12097 297.53789 389.48633 296.2832 C 382.20896 294.00298 374.5381 293.49562 366.9668 293.10156 C 356.7058 292.56718 346.42966 292.48495 336.1582 292.27734 C 332.61182 291.73993 329.75095 289.31582 327.23633 286.92383 C 325.34759 285.20172 323.48368 283.44832 321.50781 281.82422 C 319.50442 281.00814 317.23736 281.42909 315.31641 282.27344 C 313.71289 283.26912 313.15091 285.16439 312.10938 286.63281 C 310.73722 287.91698 308.69763 287.60865 307.03516 287.1875 C 303.26239 286.32373 299.26262 286.32997 295.53711 287.42188 C 292.53288 288.75571 290.87226 291.82835 289.6875 294.73242 C 288.71576 297.11572 288.63004 299.80768 289.37305 302.26562 C 290.07775 305.231 291.65737 307.88027 293.31445 310.40234 C 294.35749 311.92402 293.27256 314.10275 291.45508 314.25586 C 289.27145 314.76972 287.0046 314.7755 284.78711 315.08398 C 275.69275 316.06534 266.49901 316.99952 257.36523 315.99609 C 247.4823 314.77096 238.00559 311.57486 228.51953 308.68359 L 171.5293 291 C 164.27857 289.83553 154.74543 288.58645 147.50781 289.51172 C 141.76127 290.26445 136.10551 291.56628 130.42969 292.70898 C 127.735 292.97166 125.18066 291.32291 123.73828 289.13086 C 115.2153 277.60228 108.77625 269.87376 100.41211 258.23047 C 89.979272 239.28373 86.009268 227.89077 81.988281 214.86523 C 78.638717 204.89726 77.179613 201.4595 74.583984 190.61328 C 73.95628 187.58104 73.462759 182.3059 72.607422 179.32227 C 71.508868 174.1092 71.473544 168.7614 71.150391 163.46484 C 70.763564 162.17228 70.431635 161.4302 70.154297 161.31836 L 70.154297 161.3125 L 70.152344 161.31445 C 70.11795 161.29934 70.080246 161.30116 70.035156 161.3125 z M 359.67969 300.59766 A 10.185768 10.185768 0 0 1 361.40625 300.79297 A 10.185768 10.185768 0 0 1 369.38477 312.78711 A 10.185768 10.185768 0 0 1 357.39062 320.76562 A 10.185768 10.185768 0 0 1 349.41211 308.77344 A 10.185768 10.185768 0 0 1 359.67969 300.59766 z M 348.84961 313.88281 L 348.85547 313.89258 C 348.86 313.91148 348.86813 313.92333 348.87305 313.94336 C 348.86587 313.9358 348.85641 313.93126 348.84961 313.91992 C 348.84944 313.91236 348.85186 313.89415 348.84961 313.88281 z "
       transform="matrix(0.26458333,0,0,0.26458333,-64.633927,126.53278)"
       id="path849" />
    <path
       inkscape:export-ydpi="98.304054"
       inkscape:export-xdpi="98.304054"
       style="fill:#ffffff;fill-opacity:0.90196079;stroke:none;stroke-width:1.37124598;stroke-miterlimit:4;stroke-dasharray:none;opacity:1"
       d="M 1.5126947,126.5328 A 66.146402,66.146402 0 0 0 -64.633927,192.67935 66.146402,66.146402 0 0 0 1.5126947,258.82427 66.146402,66.146402 0 0 0 67.657673,192.67935 66.146402,66.146402 0 0 0 1.5126947,126.5328 Z m 0,5.93064 A 60.456387,60.456387 0 0 1 61.969143,192.91986 60.456387,60.456387 0 0 1 1.5126947,253.37623 60.456387,60.456387 0 0 1 -58.943772,192.91986 60.456387,60.456387 0 0 1 1.5126947,132.46344 Z"
       id="path853"
       inkscape:connector-curvature="0"
       inkscape:export-filename="/home/pato/Code/Sciber/bulma-start/img/brand-logo-512.png" />
  </g>
</svg>
