<?xml version="1.0" encoding="UTF-8" standalone="no"?>
<svg
   xmlns:dc="http://purl.org/dc/elements/1.1/"
   xmlns:cc="http://creativecommons.org/ns#"
   xmlns:rdf="http://www.w3.org/1999/02/22-rdf-syntax-ns#"
   xmlns:svg="http://www.w3.org/2000/svg"
   xmlns="http://www.w3.org/2000/svg"
   xmlns:sodipodi="http://sodipodi.sourceforge.net/DTD/sodipodi-0.dtd"
   xmlns:inkscape="http://www.inkscape.org/namespaces/inkscape"
   height="549"
   width="548.71161"
   version="1.1"
   id="svg945"
   sodipodi:docname="Fibonacci_spiral-no_squares.svg"
   style="fill:none;stroke:#000000"
   inkscape:version="0.92.4 (5da689c313, 2019-01-14)">
  <metadata
     id="metadata951">
    <rdf:RDF>
      <cc:Work
         rdf:about="">
        <dc:format>image/svg+xml</dc:format>
        <dc:type
           rdf:resource="http://purl.org/dc/dcmitype/StillImage" />
        <dc:title></dc:title>
      </cc:Work>
    </rdf:RDF>
  </metadata>
  <defs
     id="defs949" />
  <sodipodi:namedview
     pagecolor="#ffffff"
     bordercolor="#666666"
     borderopacity="1"
     objecttolerance="10"
     gridtolerance="10"
     guidetolerance="10"
     inkscape:pageopacity="0"
     inkscape:pageshadow="2"
     inkscape:window-width="1920"
     inkscape:window-height="1136"
     id="namedview947"
     showgrid="false"
     fit-margin-top="0"
     fit-margin-left="0"
     fit-margin-right="0"
     fit-margin-bottom="0"
     inkscape:zoom="1"
     inkscape:cx="-74.53836"
     inkscape:cy="199.70271"
     inkscape:window-x="1920"
     inkscape:window-y="27"
     inkscape:window-maximized="1"
     inkscape:current-layer="svg945" />
  <path
     style="stroke-width:5"
     inkscape:connector-curvature="0"
     id="path927"
     d="m 306.09164,418.5 a 16,16 0 0 1 -16,-16" />
  <path
     style="stroke-width:5"
     inkscape:connector-curvature="0"
     id="path929"
     d="m 338.09164,386.5 a 32,32 0 0 1 -32,32" />
  <path
     style="stroke-width:5"
     inkscape:connector-curvature="0"
     id="path931"
     d="m 290.09164,338.5 a 48,48 0 0 1 48,48" />
  <path
     style="stroke-width:5"
     inkscape:connector-curvature="0"
     id="path933"
     d="m 210.09164,418.5 a 80,80 0 0 1 80,-80" />
  <path
     style="stroke-width:5"
     inkscape:connector-curvature="0"
     id="path935"
     d="m 338.09164,546.498 a 128,128 0 0 1 -128,-128" />
  <path
     style="stroke-width:5"
     inkscape:connector-curvature="0"
     id="path937"
     d="m 546.09164,338.5 a 208,208 0 0 1 -208,208" />
  <path
     style="stroke-width:5"
     d="M 210.21164,2.5 C 137.67805,2.5 66.640456,16.991884 0.96163633,44.361328"
     id="path939"
     inkscape:connector-curvature="0"
     sodipodi:nodetypes="cc" />
  <path
     style="stroke-width:5"
     inkscape:connector-curvature="0"
     id="path941"
     d="m 210.21164,2.5 a 336,336 0 0 1 336,336" />
  <rect
     height="544"
     width="544"
     y="2.3899841"
     x="2.2116058"
     id="rect962"
     style="stroke-width:2.5" />
</svg>
